
<svg width="12px" height="12px" viewBox="0 0 12 12" version="1.1" xmlns="http://www.w3.org/2000/svg" xmlns:xlink="http://www.w3.org/1999/xlink">
    <g id="Symbols" stroke="none" stroke-width="1" fill="none" fill-rule="evenodd">
        <g id="icon/close/28" transform="translate(-8.000000, -8.000000)" fill="#222222" fill-rule="nonzero">
            <g id="Group">
                <path d="M8.7866359,8.14271568 C8.94659487,7.97357117 9.19489674,7.95477734 9.37448747,8.08633418 L9.43830641,8.14271568 L13.9990766,12.9663616 L18.5616936,8.14271568 C18.7416474,7.95242811 19.0334103,7.95242811 19.2133641,8.14271568 C19.3733231,8.3118602 19.3910963,8.57442064 19.2666838,8.76432425 L19.2133641,8.83180796 L14.6507471,13.6554539 L19.8650346,19.168192 C20.0449885,19.3584796 20.0449885,19.6669967 19.8650346,19.8572843 C19.7050756,20.0264288 19.4567738,20.0452227 19.277183,19.9136658 L19.2133641,19.8572843 L13.9990766,14.3445461 L8.7866359,19.8572843 C8.60668205,20.0475719 8.31491923,20.0475719 8.13496538,19.8572843 C7.97500641,19.6881398 7.95723319,19.4255794 8.08164573,19.2356757 L8.13496538,19.168192 L13.3474061,13.6554539 L8.7866359,8.83180796 C8.60668205,8.64152038 8.60668205,8.33300326 8.7866359,8.14271568 Z" id="Path"></path>
            </g>
        </g>
    </g>
</svg>