<?xml version="1.0" encoding="UTF-8"?>
<svg width="16px" height="18px" viewBox="0 0 16 18" version="1.1" xmlns="http://www.w3.org/2000/svg" xmlns:xlink="http://www.w3.org/1999/xlink">
    <title>icon/copy</title>
    <g id="Page-1" stroke="none" stroke-width="1" fill="none" fill-rule="evenodd">
        <g id="my-wallet" transform="translate(-696.000000, -286.000000)">
            <rect fill="#FFFFFF" x="0" y="0" width="1920" height="1517"></rect>
            <g id="Stacked-Group" transform="translate(360.000000, 196.000000)">
                <g id="Group" transform="translate(332.000000, 87.000000)" stroke="#FFFFFF">
                    <g id="Group-12" transform="translate(4.000000, 3.000000)">
                        <path d="M10,0.5 C10.4142136,0.5 10.7892136,0.667893219 11.0606602,0.939339828 C11.3321068,1.21078644 11.5,1.58578644 11.5,2 L11.5,2 L11.5,4.5 L14,4.5 C14.4142136,4.5 14.7892136,4.66789322 15.0606602,4.93933983 C15.3321068,5.21078644 15.5,5.58578644 15.5,6 L15.5,6 L15.5,16 C15.5,16.4142136 15.3321068,16.7892136 15.0606602,17.0606602 C14.7892136,17.3321068 14.4142136,17.5 14,17.5 L14,17.5 L6,17.5 C5.58578644,17.5 5.21078644,17.3321068 4.93933983,17.0606602 C4.66789322,16.7892136 4.5,16.4142136 4.5,16 L4.5,16 L4.5,13.5 L2,13.5 C1.58578644,13.5 1.21078644,13.3321068 0.939339828,13.0606602 C0.667893219,12.7892136 0.5,12.4142136 0.5,12 L0.5,12 L0.5,2 C0.5,1.58578644 0.667893219,1.21078644 0.939339828,0.939339828 C1.21078644,0.667893219 1.58578644,0.5 2,0.5 L2,0.5 Z" id="Combined-Shape"></path>
                        <rect id="Rectangle-Copy-4" x="4.5" y="4.5" width="11" height="13" rx="2"></rect>
                    </g>
                </g>
            </g>
        </g>
    </g>
</svg>